<svg id="Layer_1" enable-background="new 0 0 512 512" height="512" viewBox="0 0 512 512" width="512" xmlns="http://www.w3.org/2000/svg"><g><path d="m150.843 512h212.176v-78.267c0-9.083 7.363-16.445 16.445-16.445h82.829v-317.574c0-8.503-6.893-15.396-15.396-15.396h-296.054c-8.503 0-15.396 6.893-15.396 15.396v396.89c0 8.503 6.893 15.396 15.396 15.396zm35.665-329.367h226.912c9.082 0 16.445 7.363 16.445 16.445s-7.363 16.445-16.445 16.445h-226.912c-9.082 0-16.445-7.363-16.445-16.445s7.363-16.445 16.445-16.445zm0 65.934h226.912c9.082 0 16.445 7.363 16.445 16.445s-7.363 16.445-16.445 16.445h-226.912c-9.082 0-16.445-7.363-16.445-16.445s7.363-16.445 16.445-16.445zm0 65.935h226.912c9.082 0 16.445 7.363 16.445 16.445s-7.363 16.445-16.445 16.445h-226.912c-9.082 0-16.445-7.363-16.445-16.445s7.363-16.445 16.445-16.445zm0 65.934h134.873c9.082 0 16.445 7.363 16.445 16.445s-7.363 16.445-16.445 16.445h-134.873c-9.082 0-16.445-7.363-16.445-16.445s7.363-16.445 16.445-16.445z"/><path d="m102.556 67.872c0-9.083 7.363-16.445 16.445-16.445h290.442v-36.03c.001-8.504-6.893-15.397-15.396-15.397h-328.945c-8.503 0-15.396 6.893-15.396 15.396v429.781c0 8.503 6.893 15.396 15.396 15.396h37.454z"/><path d="m437.678 450.178h-41.768v39.849z"/></g></svg>